<svg width="99" height="28" viewBox="0 0 99 28" fill="none" xmlns="http://www.w3.org/2000/svg">
<path d="M7.68 27.444C7.26933 27.444 6.93333 27.304 6.672 27.024C6.41067 26.7627 6.28 26.436 6.28 26.044V23.552L6.924 24.168C5.636 24.1307 4.488 23.9627 3.48 23.664C2.49067 23.3653 1.65067 23.02 0.96 22.628C0.624 22.4227 0.390667 22.1707 0.26 21.872C0.129333 21.5547 0.0826667 21.2373 0.12 20.92C0.157333 20.6027 0.269333 20.332 0.456 20.108C0.661333 19.8653 0.913333 19.716 1.212 19.66C1.51067 19.5853 1.856 19.66 2.248 19.884C2.77067 20.1827 3.452 20.472 4.292 20.752C5.15067 21.0133 6.17733 21.144 7.372 21.144C8.30533 21.144 9.06133 21.032 9.64 20.808C10.2187 20.584 10.6387 20.276 10.9 19.884C11.18 19.492 11.32 19.044 11.32 18.54C11.32 18.1293 11.2267 17.7747 11.04 17.476C10.8533 17.1587 10.5453 16.888 10.116 16.664C9.68667 16.4213 9.108 16.2253 8.38 16.076L5.412 15.432C3.71333 15.0587 2.444 14.4333 1.604 13.556C0.764 12.6787 0.344 11.5307 0.344 10.112C0.344 9.01067 0.614667 8.03067 1.156 7.172C1.69733 6.29467 2.45333 5.59467 3.424 5.072C4.39467 4.54933 5.53333 4.24133 6.84 4.148L6.28 4.568V2.216C6.28 1.824 6.41067 1.49733 6.672 1.236C6.93333 0.955999 7.26933 0.815998 7.68 0.815998C8.072 0.815998 8.39867 0.955999 8.66 1.236C8.94 1.49733 9.08 1.824 9.08 2.216V4.568L8.492 4.12C9.29467 4.13867 10.172 4.29733 11.124 4.596C12.0947 4.89467 12.9253 5.31467 13.616 5.856C13.896 6.08 14.0827 6.34133 14.176 6.64C14.2693 6.92 14.2787 7.2 14.204 7.48C14.1293 7.74133 13.9893 7.96533 13.784 8.152C13.5787 8.33867 13.3173 8.45067 13 8.488C12.7013 8.50667 12.356 8.404 11.964 8.18C11.4227 7.86267 10.816 7.61067 10.144 7.424C9.472 7.21867 8.66933 7.116 7.736 7.116C6.54133 7.116 5.59867 7.38667 4.908 7.928C4.236 8.45067 3.9 9.14133 3.9 10C3.9 10.6347 4.10533 11.148 4.516 11.54C4.92667 11.9133 5.62667 12.212 6.616 12.436L9.668 13.108C11.46 13.5 12.776 14.1253 13.616 14.984C14.456 15.824 14.876 16.9347 14.876 18.316C14.876 19.3987 14.6053 20.36 14.064 21.2C13.5227 22.0213 12.776 22.684 11.824 23.188C10.8907 23.6733 9.79867 23.9813 8.548 24.112L9.08 23.524V26.044C9.08 26.436 8.94933 26.7627 8.688 27.024C8.42667 27.304 8.09067 27.444 7.68 27.444ZM18.1411 24.224C17.6931 24.224 17.3291 24.1213 17.0491 23.916C16.7877 23.7107 16.6291 23.44 16.5731 23.104C16.5171 22.7493 16.5824 22.3573 16.7691 21.928L24.1611 5.548C24.4037 5.00667 24.6931 4.624 25.0291 4.4C25.3837 4.15733 25.7851 4.036 26.2331 4.036C26.6624 4.036 27.0451 4.15733 27.3811 4.4C27.7357 4.624 28.0344 5.00667 28.2771 5.548L35.6971 21.928C35.9024 22.3573 35.9771 22.7493 35.9211 23.104C35.8651 23.4587 35.7064 23.7387 35.4451 23.944C35.1837 24.1307 34.8384 24.224 34.4091 24.224C33.8864 24.224 33.4757 24.1027 33.1771 23.86C32.8971 23.5987 32.6451 23.2067 32.4211 22.684L30.6011 18.456L32.1131 19.436H20.2971L21.8091 18.456L20.0171 22.684C19.7744 23.2253 19.5224 23.6173 19.2611 23.86C18.9997 24.1027 18.6264 24.224 18.1411 24.224ZM26.1771 8.152L22.2571 17.476L21.5291 16.58H30.8811L30.1811 17.476L26.2331 8.152H26.1771ZM43.1455 24.224C42.5668 24.224 42.1188 24.0653 41.8015 23.748C41.5028 23.412 41.3535 22.9547 41.3535 22.376V7.256H35.8935C35.4082 7.256 35.0255 7.12533 34.7455 6.864C34.4842 6.584 34.3535 6.21067 34.3535 5.744C34.3535 5.25867 34.4842 4.89467 34.7455 4.652C35.0255 4.39067 35.4082 4.26 35.8935 4.26H50.3975C50.8828 4.26 51.2562 4.39067 51.5175 4.652C51.7975 4.89467 51.9375 5.25867 51.9375 5.744C51.9375 6.21067 51.7975 6.584 51.5175 6.864C51.2562 7.12533 50.8828 7.256 50.3975 7.256H44.9375V22.376C44.9375 22.9547 44.7882 23.412 44.4895 23.748C44.1908 24.0653 43.7428 24.224 43.1455 24.224ZM55.6641 24.224C55.1415 24.224 54.7401 24.0747 54.4601 23.776C54.1801 23.4773 54.0401 23.0667 54.0401 22.544V5.716C54.0401 5.17467 54.1895 4.764 54.4881 4.484C54.7868 4.18533 55.1975 4.036 55.7201 4.036C56.1868 4.036 56.5508 4.12933 56.8121 4.316C57.0921 4.484 57.3441 4.78267 57.5681 5.212L64.4841 18.008H63.5881L70.5041 5.212C70.7281 4.78267 70.9708 4.484 71.2321 4.316C71.4935 4.12933 71.8575 4.036 72.3241 4.036C72.8468 4.036 73.2481 4.18533 73.5281 4.484C73.8081 4.764 73.9481 5.17467 73.9481 5.716V22.544C73.9481 23.0667 73.8081 23.4773 73.5281 23.776C73.2668 24.0747 72.8655 24.224 72.3241 24.224C71.8015 24.224 71.4001 24.0747 71.1201 23.776C70.8401 23.4773 70.7001 23.0667 70.7001 22.544V9.58H71.3161L65.4361 20.304C65.2495 20.6213 65.0535 20.8547 64.8481 21.004C64.6428 21.1533 64.3628 21.228 64.0081 21.228C63.6535 21.228 63.3641 21.1533 63.1401 21.004C62.9161 20.836 62.7201 20.6027 62.5521 20.304L56.6161 9.552H57.2881V22.544C57.2881 23.0667 57.1481 23.4773 56.8681 23.776C56.6068 24.0747 56.2055 24.224 55.6641 24.224ZM79.9727 24.224C79.4501 24.224 79.0487 24.0747 78.7687 23.776C78.4887 23.4773 78.3487 23.0667 78.3487 22.544V5.716C78.3487 5.17467 78.4981 4.764 78.7967 4.484C79.0954 4.18533 79.5061 4.036 80.0287 4.036C80.4954 4.036 80.8594 4.12933 81.1207 4.316C81.4007 4.484 81.6527 4.78267 81.8767 5.212L88.7927 18.008H87.8967L94.8127 5.212C95.0367 4.78267 95.2794 4.484 95.5407 4.316C95.8021 4.12933 96.1661 4.036 96.6327 4.036C97.1554 4.036 97.5567 4.18533 97.8367 4.484C98.1167 4.764 98.2567 5.17467 98.2567 5.716V22.544C98.2567 23.0667 98.1167 23.4773 97.8367 23.776C97.5754 24.0747 97.1741 24.224 96.6327 24.224C96.1101 24.224 95.7087 24.0747 95.4287 23.776C95.1487 23.4773 95.0087 23.0667 95.0087 22.544V9.58H95.6247L89.7447 20.304C89.5581 20.6213 89.3621 20.8547 89.1567 21.004C88.9514 21.1533 88.6714 21.228 88.3167 21.228C87.9621 21.228 87.6727 21.1533 87.4487 21.004C87.2247 20.836 87.0287 20.6027 86.8607 20.304L80.9247 9.552H81.5967V22.544C81.5967 23.0667 81.4567 23.4773 81.1767 23.776C80.9154 24.0747 80.5141 24.224 79.9727 24.224Z" fill="white"/>
</svg>
